# xmcd
#
# Track frame offsets:
#	150
#	13674
#	26406
#	47626
#	66464
#	82768
#	99703
#	117436
#	139759
#	157190
#	169842
#	190010
#	208982
#	226950
#	240210
#	258626
#	273970
#	294267
#	314594
#	328520
#
# Disc length: 4566 seconds
#
# Revision: 1
# Processed by: cddbd v1.5.1PL0 Copyright (c) Steve Scherf et al.
# Submitted via: dBpowerAMP V4.0
#
DISCID=1c11d414
DTITLE=Dwight Yoakam - Stone Alone Live
DYEAR=1998
DGENRE=country
TTITLE0=Streets Of Bakersfield w/ Buck Owens
TTITLE1=Tiger By The Tail w/ Buck Owens
TTITLE2=Folsom Prison Blues w/ Buck Owens
TTITLE3=Fast As You
TTITLE4=Guitars,Cadillacs and Hillbilly Music
TTITLE5=Down The Road
TTITLE6=Please,Please,Baby
TTITLE7=Readin' Rightin' Route 23
TTITLE8=Walkin After Midnight
TTITLE9=I`ll Be Gone
TTITLE10=Honky Tonk Man
TTITLE11=MY Bucket's Got A Hole
TTITLE12=Little Ways
TTITLE13=Sweetheart Of Mine
TTITLE14=Guitars,Cadillacs and Hillbilly Music
TTITLE15=Down The Road
TTITLE16=Rocky Road Blues
TTITLE17=1000 Miles
TTITLE18=I`ll Be Gone
TTITLE19=Honky Tonk Man
EXTD=
EXTT0=
EXTT1=
EXTT2=
EXTT3=
EXTT4=
EXTT5=
EXTT6=
EXTT7=
EXTT8=
EXTT9=
EXTT10=
EXTT11=
EXTT12=
EXTT13=
EXTT14=
EXTT15=
EXTT16=
EXTT17=
EXTT18=
EXTT19=
PLAYORDER=
